<svg width="235" height="60" viewBox="0 0 235 60" fill="none" xmlns="http://www.w3.org/2000/svg">
<path d="M36.15 26.23V31.15H17.55V26.23H36.15Z" fill="white" fill-opacity="0.72"/>
<path d="M53.9782 3.94V8.05H45.3982V12.49H51.8182V16.48H45.3982V25H40.2682V3.94H53.9782Z" fill="white" fill-opacity="0.72"/>
<path d="M61.8045 2.8V25H56.6744V2.8H61.8045Z" fill="white" fill-opacity="0.72"/>
<path d="M73.1421 25.24C71.5021 25.24 70.0221 24.89 68.7021 24.19C67.4021 23.49 66.3721 22.49 65.6121 21.19C64.8721 19.89 64.5021 18.37 64.5021 16.63C64.5021 14.91 64.8821 13.4 65.6421 12.1C66.4021 10.78 67.4421 9.77 68.7621 9.07C70.0821 8.37 71.5621 8.02 73.2021 8.02C74.8421 8.02 76.3221 8.37 77.6421 9.07C78.9621 9.77 80.0021 10.78 80.7621 12.1C81.5221 13.4 81.9021 14.91 81.9021 16.63C81.9021 18.35 81.5121 19.87 80.7321 21.19C79.9721 22.49 78.9221 23.49 77.5821 24.19C76.2621 24.89 74.7821 25.24 73.1421 25.24ZM73.1421 20.8C74.1221 20.8 74.9521 20.44 75.6321 19.72C76.3321 19 76.6821 17.97 76.6821 16.63C76.6821 15.29 76.3421 14.26 75.6621 13.54C75.0021 12.82 74.1821 12.46 73.2021 12.46C72.2021 12.46 71.3721 12.82 70.7121 13.54C70.0521 14.24 69.7221 15.27 69.7221 16.63C69.7221 17.97 70.0421 19 70.6821 19.72C71.3421 20.44 72.1621 20.8 73.1421 20.8Z" fill="white" fill-opacity="0.72"/>
<path d="M89.7537 11.05C90.3537 10.13 91.1037 9.41 92.0037 8.89C92.9037 8.35 93.9037 8.08 95.0037 8.08V13.51H93.5937C92.3137 13.51 91.3537 13.79 90.7137 14.35C90.0737 14.89 89.7537 15.85 89.7537 17.23V25H84.6237V8.26H89.7537V11.05Z" fill="white" fill-opacity="0.72"/>
<path d="M100.036 6.52C99.1357 6.52 98.3957 6.26 97.8157 5.74C97.2557 5.2 96.9757 4.54 96.9757 3.76C96.9757 2.96 97.2557 2.3 97.8157 1.78C98.3957 1.24 99.1357 0.970001 100.036 0.970001C100.916 0.970001 101.636 1.24 102.196 1.78C102.776 2.3 103.066 2.96 103.066 3.76C103.066 4.54 102.776 5.2 102.196 5.74C101.636 6.26 100.916 6.52 100.036 6.52ZM102.586 8.26V25H97.4557V8.26H102.586Z" fill="white" fill-opacity="0.72"/>
<path d="M105.283 16.6C105.283 14.88 105.603 13.37 106.243 12.07C106.903 10.77 107.793 9.77 108.913 9.07C110.033 8.37 111.283 8.02 112.663 8.02C113.763 8.02 114.763 8.25 115.663 8.71C116.583 9.17 117.303 9.79 117.823 10.57V2.8H122.953V25H117.823V22.6C117.343 23.4 116.653 24.04 115.753 24.52C114.873 25 113.843 25.24 112.663 25.24C111.283 25.24 110.033 24.89 108.913 24.19C107.793 23.47 106.903 22.46 106.243 21.16C105.603 19.84 105.283 18.32 105.283 16.6ZM117.823 16.63C117.823 15.35 117.463 14.34 116.743 13.6C116.043 12.86 115.183 12.49 114.163 12.49C113.143 12.49 112.273 12.86 111.553 13.6C110.853 14.32 110.503 15.32 110.503 16.6C110.503 17.88 110.853 18.9 111.553 19.66C112.273 20.4 113.143 20.77 114.163 20.77C115.183 20.77 116.043 20.4 116.743 19.66C117.463 18.92 117.823 17.91 117.823 16.63Z" fill="white" fill-opacity="0.72"/>
<path d="M125.645 16.6C125.645 14.88 125.965 13.37 126.605 12.07C127.265 10.77 128.155 9.77 129.275 9.07C130.395 8.37 131.645 8.02 133.025 8.02C134.205 8.02 135.235 8.26 136.115 8.74C137.015 9.22 137.705 9.85 138.185 10.63V8.26H143.315V25H138.185V22.63C137.685 23.41 136.985 24.04 136.085 24.52C135.205 25 134.175 25.24 132.995 25.24C131.635 25.24 130.395 24.89 129.275 24.19C128.155 23.47 127.265 22.46 126.605 21.16C125.965 19.84 125.645 18.32 125.645 16.6ZM138.185 16.63C138.185 15.35 137.825 14.34 137.105 13.6C136.405 12.86 135.545 12.49 134.525 12.49C133.505 12.49 132.635 12.86 131.915 13.6C131.215 14.32 130.865 15.32 130.865 16.6C130.865 17.88 131.215 18.9 131.915 19.66C132.635 20.4 133.505 20.77 134.525 20.77C135.545 20.77 136.405 20.4 137.105 19.66C137.825 18.92 138.185 17.91 138.185 16.63Z" fill="white" fill-opacity="0.72"/>
<path d="M8.48 51.21C6.94 51.21 5.56 50.96 4.34 50.46C3.12 49.96 2.14 49.22 1.4 48.24C0.679998 47.26 0.299998 46.08 0.259998 44.7H5.72C5.8 45.48 6.07 46.08 6.53 46.5C6.99 46.9 7.59 47.1 8.33 47.1C9.09 47.1 9.69 46.93 10.13 46.59C10.57 46.23 10.79 45.74 10.79 45.12C10.79 44.6 10.61 44.17 10.25 43.83C9.91 43.49 9.48 43.21 8.96 42.99C8.46 42.77 7.74 42.52 6.8 42.24C5.44 41.82 4.33 41.4 3.47 40.98C2.61 40.56 1.87 39.94 1.25 39.12C0.629998 38.3 0.319998 37.23 0.319998 35.91C0.319998 33.95 1.03 32.42 2.45 31.32C3.87 30.2 5.72 29.64 8 29.64C10.32 29.64 12.19 30.2 13.61 31.32C15.03 32.42 15.79 33.96 15.89 35.94H10.34C10.3 35.26 10.05 34.73 9.59 34.35C9.13 33.95 8.54 33.75 7.82 33.75C7.2 33.75 6.7 33.92 6.32 34.26C5.94 34.58 5.75 35.05 5.75 35.67C5.75 36.35 6.07 36.88 6.71 37.26C7.35 37.64 8.35 38.05 9.71 38.49C11.07 38.95 12.17 39.39 13.01 39.81C13.87 40.23 14.61 40.84 15.23 41.64C15.85 42.44 16.16 43.47 16.16 44.73C16.16 45.93 15.85 47.02 15.23 48C14.63 48.98 13.75 49.76 12.59 50.34C11.43 50.92 10.06 51.21 8.48 51.21Z" fill="white" fill-opacity="0.72"/>
<path d="M35.097 42.36C35.097 42.84 35.067 43.34 35.007 43.86H23.397C23.477 44.9 23.807 45.7 24.387 46.26C24.987 46.8 25.717 47.07 26.577 47.07C27.857 47.07 28.747 46.53 29.247 45.45H34.707C34.427 46.55 33.917 47.54 33.177 48.42C32.457 49.3 31.547 49.99 30.447 50.49C29.347 50.99 28.117 51.24 26.757 51.24C25.117 51.24 23.657 50.89 22.377 50.19C21.097 49.49 20.097 48.49 19.377 47.19C18.657 45.89 18.297 44.37 18.297 42.63C18.297 40.89 18.647 39.37 19.347 38.07C20.067 36.77 21.067 35.77 22.347 35.07C23.627 34.37 25.097 34.02 26.757 34.02C28.377 34.02 29.817 34.36 31.077 35.04C32.337 35.72 33.317 36.69 34.017 37.95C34.737 39.21 35.097 40.68 35.097 42.36ZM29.847 41.01C29.847 40.13 29.547 39.43 28.947 38.91C28.347 38.39 27.597 38.13 26.697 38.13C25.837 38.13 25.107 38.38 24.507 38.88C23.927 39.38 23.567 40.09 23.427 41.01H29.847Z" fill="white" fill-opacity="0.72"/>
<path d="M61.8334 34.26L57.3034 51H51.6334L48.9934 40.14L46.2634 51H40.6234L36.0634 34.26H41.1934L43.5634 46.23L46.3834 34.26H51.8134L54.6634 46.17L57.0034 34.26H61.8334Z" fill="white" fill-opacity="0.72"/>
<path d="M62.7697 42.6C62.7697 40.88 63.0897 39.37 63.7297 38.07C64.3897 36.77 65.2797 35.77 66.3997 35.07C67.5197 34.37 68.7697 34.02 70.1497 34.02C71.3297 34.02 72.3597 34.26 73.2397 34.74C74.1397 35.22 74.8297 35.85 75.3097 36.63V34.26H80.4397V51H75.3097V48.63C74.8097 49.41 74.1097 50.04 73.2097 50.52C72.3297 51 71.2997 51.24 70.1197 51.24C68.7597 51.24 67.5197 50.89 66.3997 50.19C65.2797 49.47 64.3897 48.46 63.7297 47.16C63.0897 45.84 62.7697 44.32 62.7697 42.6ZM75.3097 42.63C75.3097 41.35 74.9497 40.34 74.2297 39.6C73.5297 38.86 72.6697 38.49 71.6497 38.49C70.6297 38.49 69.7597 38.86 69.0397 39.6C68.3397 40.32 67.9897 41.32 67.9897 42.6C67.9897 43.88 68.3397 44.9 69.0397 45.66C69.7597 46.4 70.6297 46.77 71.6497 46.77C72.6697 46.77 73.5297 46.4 74.2297 45.66C74.9497 44.92 75.3097 43.91 75.3097 42.63Z" fill="white" fill-opacity="0.72"/>
<path d="M90.511 34.02C91.691 34.02 92.721 34.26 93.601 34.74C94.501 35.22 95.191 35.85 95.671 36.63V34.26H100.801V50.97C100.801 52.51 100.491 53.9 99.871 55.14C99.271 56.4 98.341 57.4 97.081 58.14C95.841 58.88 94.291 59.25 92.431 59.25C89.951 59.25 87.941 58.66 86.401 57.48C84.861 56.32 83.981 54.74 83.761 52.74H88.831C88.991 53.38 89.371 53.88 89.971 54.24C90.571 54.62 91.311 54.81 92.191 54.81C93.251 54.81 94.091 54.5 94.711 53.88C95.351 53.28 95.671 52.31 95.671 50.97V48.6C95.171 49.38 94.481 50.02 93.601 50.52C92.721 51 91.691 51.24 90.511 51.24C89.131 51.24 87.881 50.89 86.761 50.19C85.641 49.47 84.751 48.46 84.091 47.16C83.451 45.84 83.131 44.32 83.131 42.6C83.131 40.88 83.451 39.37 84.091 38.07C84.751 36.77 85.641 35.77 86.761 35.07C87.881 34.37 89.131 34.02 90.511 34.02ZM95.671 42.63C95.671 41.35 95.311 40.34 94.591 39.6C93.891 38.86 93.031 38.49 92.011 38.49C90.991 38.49 90.121 38.86 89.401 39.6C88.701 40.32 88.351 41.32 88.351 42.6C88.351 43.88 88.701 44.9 89.401 45.66C90.121 46.4 90.991 46.77 92.011 46.77C93.031 46.77 93.891 46.4 94.591 45.66C95.311 44.92 95.671 43.91 95.671 42.63Z" fill="white" fill-opacity="0.72"/>
<path d="M120.292 42.36C120.292 42.84 120.262 43.34 120.202 43.86H108.592C108.672 44.9 109.002 45.7 109.582 46.26C110.182 46.8 110.912 47.07 111.772 47.07C113.052 47.07 113.942 46.53 114.442 45.45H119.902C119.622 46.55 119.112 47.54 118.372 48.42C117.652 49.3 116.742 49.99 115.642 50.49C114.542 50.99 113.312 51.24 111.952 51.24C110.312 51.24 108.852 50.89 107.572 50.19C106.292 49.49 105.292 48.49 104.572 47.19C103.852 45.89 103.492 44.37 103.492 42.63C103.492 40.89 103.842 39.37 104.542 38.07C105.262 36.77 106.262 35.77 107.542 35.07C108.822 34.37 110.292 34.02 111.952 34.02C113.572 34.02 115.012 34.36 116.272 35.04C117.532 35.72 118.512 36.69 119.212 37.95C119.932 39.21 120.292 40.68 120.292 42.36ZM115.042 41.01C115.042 40.13 114.742 39.43 114.142 38.91C113.542 38.39 112.792 38.13 111.892 38.13C111.032 38.13 110.302 38.38 109.702 38.88C109.122 39.38 108.762 40.09 108.622 41.01H115.042Z" fill="white" fill-opacity="0.72"/>
<path d="M145.406 36.72C145.406 37.94 145.126 39.06 144.566 40.08C144.006 41.08 143.146 41.89 141.986 42.51C140.826 43.13 139.386 43.44 137.666 43.44H134.486V51H129.356V29.94H137.666C139.346 29.94 140.766 30.23 141.926 30.81C143.086 31.39 143.956 32.19 144.536 33.21C145.116 34.23 145.406 35.4 145.406 36.72ZM137.276 39.36C138.256 39.36 138.986 39.13 139.466 38.67C139.946 38.21 140.186 37.56 140.186 36.72C140.186 35.88 139.946 35.23 139.466 34.77C138.986 34.31 138.256 34.08 137.276 34.08H134.486V39.36H137.276Z" fill="white" fill-opacity="0.72"/>
<path d="M153.207 37.05C153.807 36.13 154.557 35.41 155.457 34.89C156.357 34.35 157.357 34.08 158.457 34.08V39.51H157.047C155.767 39.51 154.807 39.79 154.167 40.35C153.527 40.89 153.207 41.85 153.207 43.23V51H148.077V34.26H153.207V37.05Z" fill="white" fill-opacity="0.72"/>
<path d="M168.529 51.24C166.889 51.24 165.409 50.89 164.089 50.19C162.789 49.49 161.759 48.49 160.999 47.19C160.259 45.89 159.889 44.37 159.889 42.63C159.889 40.91 160.269 39.4 161.029 38.1C161.789 36.78 162.829 35.77 164.149 35.07C165.469 34.37 166.949 34.02 168.589 34.02C170.229 34.02 171.709 34.37 173.029 35.07C174.349 35.77 175.389 36.78 176.149 38.1C176.909 39.4 177.289 40.91 177.289 42.63C177.289 44.35 176.899 45.87 176.119 47.19C175.359 48.49 174.309 49.49 172.969 50.19C171.649 50.89 170.169 51.24 168.529 51.24ZM168.529 46.8C169.509 46.8 170.339 46.44 171.019 45.72C171.719 45 172.069 43.97 172.069 42.63C172.069 41.29 171.729 40.26 171.049 39.54C170.389 38.82 169.569 38.46 168.589 38.46C167.589 38.46 166.759 38.82 166.099 39.54C165.439 40.24 165.109 41.27 165.109 42.63C165.109 43.97 165.429 45 166.069 45.72C166.729 46.44 167.549 46.8 168.529 46.8Z" fill="white" fill-opacity="0.72"/>
<path d="M182.56 32.52C181.66 32.52 180.92 32.26 180.34 31.74C179.78 31.2 179.5 30.54 179.5 29.76C179.5 28.96 179.78 28.3 180.34 27.78C180.92 27.24 181.66 26.97 182.56 26.97C183.44 26.97 184.16 27.24 184.72 27.78C185.3 28.3 185.59 28.96 185.59 29.76C185.59 30.54 185.3 31.2 184.72 31.74C184.16 32.26 183.44 32.52 182.56 32.52ZM185.14 53.16C185.14 55.22 184.62 56.7 183.58 57.6C182.54 58.52 181.09 58.98 179.23 58.98H177.22V54.63H178.45C179.01 54.63 179.41 54.52 179.65 54.3C179.89 54.08 180.01 53.72 180.01 53.22V34.26H185.14V53.16Z" fill="white" fill-opacity="0.72"/>
<path d="M204.609 42.36C204.609 42.84 204.579 43.34 204.519 43.86H192.909C192.989 44.9 193.319 45.7 193.899 46.26C194.499 46.8 195.229 47.07 196.089 47.07C197.369 47.07 198.259 46.53 198.759 45.45H204.219C203.939 46.55 203.429 47.54 202.689 48.42C201.969 49.3 201.059 49.99 199.959 50.49C198.859 50.99 197.629 51.24 196.269 51.24C194.629 51.24 193.169 50.89 191.889 50.19C190.609 49.49 189.609 48.49 188.889 47.19C188.169 45.89 187.809 44.37 187.809 42.63C187.809 40.89 188.159 39.37 188.859 38.07C189.579 36.77 190.579 35.77 191.859 35.07C193.139 34.37 194.609 34.02 196.269 34.02C197.889 34.02 199.329 34.36 200.589 35.04C201.849 35.72 202.829 36.69 203.529 37.95C204.249 39.21 204.609 40.68 204.609 42.36ZM199.359 41.01C199.359 40.13 199.059 39.43 198.459 38.91C197.859 38.39 197.109 38.13 196.209 38.13C195.349 38.13 194.619 38.38 194.019 38.88C193.439 39.38 193.079 40.09 192.939 41.01H199.359Z" fill="white" fill-opacity="0.72"/>
<path d="M206.295 42.63C206.295 40.89 206.645 39.37 207.345 38.07C208.065 36.77 209.055 35.77 210.315 35.07C211.595 34.37 213.055 34.02 214.695 34.02C216.795 34.02 218.545 34.57 219.945 35.67C221.365 36.77 222.295 38.32 222.735 40.32H217.275C216.815 39.04 215.925 38.4 214.605 38.4C213.665 38.4 212.915 38.77 212.355 39.51C211.795 40.23 211.515 41.27 211.515 42.63C211.515 43.99 211.795 45.04 212.355 45.78C212.915 46.5 213.665 46.86 214.605 46.86C215.925 46.86 216.815 46.22 217.275 44.94H222.735C222.295 46.9 221.365 48.44 219.945 49.56C218.525 50.68 216.775 51.24 214.695 51.24C213.055 51.24 211.595 50.89 210.315 50.19C209.055 49.49 208.065 48.49 207.345 47.19C206.645 45.89 206.295 44.37 206.295 42.63Z" fill="white" fill-opacity="0.72"/>
<path d="M234.809 46.65V51H232.199C230.339 51 228.889 50.55 227.849 49.65C226.809 48.73 226.289 47.24 226.289 45.18V38.52H224.249V34.26H226.289V30.18H231.419V34.26H234.779V38.52H231.419V45.24C231.419 45.74 231.539 46.1 231.779 46.32C232.019 46.54 232.419 46.65 232.979 46.65H234.809Z" fill="white" fill-opacity="0.72"/>
</svg>
